{"title":"Minions [2015] (No Cinavia) 1080p","uid":13087011,"size":2533845022,"categoryP":"video","categoryS":"hd___movies","magnet":"?xt=urn:btih:cfd2fe40c4ec69af65cd7c47625836263952a495&amp;dn=Minions+%5B2015%5D+%28No+Cinavia%29+1080p&amp;tr=udp%3A%2F%2Ftracker.leechers-paradise.org%3A6969&amp;tr=udp%3A%2F%2Fzer0day.ch%3A1337&amp;tr=udp%3A%2F%2Fopen.demonii.com%3A1337&amp;tr=udp%3A%2F%2Ftracker.coppersurfer.tk%3A6969&amp;tr=udp%3A%2F%2Fexodus.desync.com%3A6969","seeders":1,"leechers":0,"uploader":"AlienMethod","files":6,"time":1450982623,"description":"x264/mp4\r\n6-Channel    (audio 1)\r\n2-Channel    (audio 2)\r\nCinavia Removed (CinEx HD)\r\nEnglish Subs\r\n\r\n&quot;Minions Stuart, Kevin and Bob are recruited by Scarlet Overkill, a super-villain who, \r\nalongside her inventor husband Herb, hatches a plot to take over the world.&quot;\r\n\r\n\r\nGeneral\r\nComplete name Minions [2015] (NoCinavia) 1080p\r\nMinions [2015] (NoCinavia) 1080p.mp4\r\nFormat : MPEG-4\r\nFormat profile : Base Media\r\nCodec ID : isom\r\nFile size : 2.36 GiB\r\nDuration : 1h 30mn\r\nOverall bit rate mode : Variable\r\nOverall bit rate : 3 714 Kbps\r\nEncoded date : UTC 2015-12-24 04:57:44\r\nTagged date : UTC 2015-12-24 04:57:44\r\nWriting application : My MP4Box GUI 0.6.0.6 \r\n\r\nVideo\r\nID : 1\r\nFormat : AVC\r\nFormat/Info : Advanced Video Codec\r\nFormat profile :   \r\nFormat settings, CABAC : Yes\r\nFormat settings, ReFrames : 4 frames\r\nCodec ID : avc1\r\nCodec ID/Info : Advanced Video Coding\r\nDuration : 1h 30mn\r\nBit rate : 2 850 Kbps\r\nMaximum bit rate : 22.4 Mbps\r\nWidth : 1 920 pixels\r\nHeight : 1 036 pixels\r\nDisplay aspect ratio : 1.85:1\r\nFrame rate mode : Constant\r\nFrame rate : 23.976 fps\r\nColor space : YUV\r\nChroma subsampling : 4:2:0\r\nBit depth : 8 bits\r\nScan type : Progressive\r\nBits/(Pixel*Frame) : 0.060\r\nStream size : 1.81 GiB (77%)\r\nTitle : Minions (CinEx)_track1_und.h264\r\nWriting library : x264 core 146 r2538 121396c\r\nEncoded date : UTC 2015-12-24 04:57:44\r\nTagged date : UTC 2015-12-24 04:58:04\r\n\r\nAudio #1\r\nID : 2\r\nFormat : AC-3\r\nFormat/Info : Audio Coding 3\r\nMode extension : CM (complete main)\r\nFormat settings, Endianness : Big\r\nCodec ID : ac-3\r\nDuration : 1h 30mn\r\nBit rate mode : Constant\r\nBit rate : 640 Kbps\r\nChannel(s) : 6 channels\r\nChannel positions : Front: L C R, Side: L R, LFE\r\nSampling rate : 48.0 KHz\r\nBit depth : 16 bits\r\nCompression mode : Lossy\r\nStream size : 416 MiB (17%)\r\nTitle : Minions (CinEx)_track2_und.ac3\r\nEncoded date : UTC 2015-12-24 04:58:01\r\nTagged date : UTC 2015-12-24 04:58:04\r\n\r\nAudio #2\r\nID : 3\r\nFormat : AAC\r\nFormat/Info : Advanced Audio Codec\r\nFormat profile : LC\r\nCodec ID : 40\r\nDuration : 1h 30mn\r\nBit rate mode : Variable\r\nBit rate : 220 Kbps\r\nMaximum bit rate : 258 Kbps\r\nChannel(s) : 2 channels\r\nChannel positions : Front: L R\r\nSampling rate : 48.0 KHz\r\nCompression mode : Lossy\r\nStream size : 143 MiB (6%)\r\nTitle : Minions (CinEx)_track2_und_Output.m4a\r\nEncoded date : UTC 2015-12-24 04:58:03\r\nTagged date : UTC 2015-12-24 04:58:04","torrent":{"xt":"urn:btih:cfd2fe40c4ec69af65cd7c47625836263952a495","amp;dn":"Minions+%5B2015%5D+%28No+Cinavia%29+1080p","amp;tr":["udp%3A%2F%2Ftracker.leechers-paradise.org%3A6969","udp%3A%2F%2Fzer0day.ch%3A1337","udp%3A%2F%2Fopen.demonii.com%3A1337","udp%3A%2F%2Ftracker.coppersurfer.tk%3A6969","udp%3A%2F%2Fexodus.desync.com%3A6969"],"infoHash":"cfd2fe40c4ec69af65cd7c47625836263952a495","infoHashBuffer":{"type":"Buffer","data":[207,210,254,64,196,236,105,175,101,205,124,71,98,88,54,38,57,82,164,149]},"announce":[],"urlList":[]}}